<svg width="131" height="20" viewBox="0 0 131 20" fill="none" xmlns="http://www.w3.org/2000/svg">
<path d="M19.1978 5.39509H15.211C15.02 5.39509 14.8369 5.31922 14.7018 5.18416C14.5667 5.04911 14.4909 4.86594 14.4909 4.67494V0.736141C14.4909 0.545146 14.5667 0.361974 14.7018 0.22692C14.8369 0.0918665 15.02 0.0159944 15.211 0.0159944H16.7753C18.5107 0.0159944 19.918 1.42228 19.918 3.15763V4.67494C19.918 4.86594 19.8421 5.04911 19.707 5.18416C19.572 5.31922 19.3888 5.39509 19.1978 5.39509Z" fill="#131316"/>
<path d="M0.00897396 16.7313V7.93759C0.00897396 7.84302 0.0276008 7.74937 0.0637914 7.662C0.0999821 7.57463 0.153028 7.49524 0.219899 7.42837C0.286771 7.3615 0.366159 7.30845 0.453531 7.27226C0.540902 7.23607 0.634547 7.21745 0.729118 7.21745H4.69391C4.8849 7.21745 5.06808 7.29332 5.20313 7.42837C5.33818 7.56342 5.41405 7.7466 5.41405 7.93759V19.1538C5.41405 19.3448 5.33818 19.528 5.20313 19.6631C5.06808 19.7981 4.8849 19.874 4.69391 19.874H3.1516C1.41626 19.874 0.00897396 18.4667 0.00897396 16.7313Z" fill="#131316"/>
<path d="M7.24843 16.7313V7.93759C7.24843 7.7466 7.3243 7.56342 7.45935 7.42837C7.59441 7.29332 7.77758 7.21745 7.96857 7.21745H11.9334C12.1244 7.21745 12.3075 7.29332 12.4426 7.42837C12.5776 7.56342 12.6535 7.7466 12.6535 7.93759V19.1538C12.6535 19.3448 12.5776 19.528 12.4426 19.6631C12.3075 19.7981 12.1244 19.874 11.9334 19.874H10.3911C8.65571 19.874 7.24843 18.4667 7.24843 16.7313Z" fill="#131316"/>
<path d="M14.4879 16.7313V7.93759C14.4879 7.7466 14.5638 7.56342 14.6989 7.42837C14.8339 7.29332 15.0171 7.21745 15.2081 7.21745H19.1728C19.3638 7.21745 19.547 7.29332 19.682 7.42837C19.8171 7.56342 19.8929 7.7466 19.8929 7.93759V19.1538C19.8929 19.3448 19.8171 19.528 19.682 19.6631C19.547 19.7981 19.3638 19.874 19.1728 19.874H17.6305C15.8952 19.874 14.4879 18.4667 14.4879 16.7313Z" fill="#131316"/>
<path d="M9.5769 0.00800148L0.722144 0C0.531323 -1.84048e-07 0.348304 0.0757343 0.21328 0.210571C0.0782553 0.345408 0.00226609 0.528323 0.00200106 0.719144L5.44821e-07 2.30046C-0.000999654 3.9998 1.37527 5.38007 3.07561 5.38107L11.9304 5.39008C12.1215 5.39008 12.3047 5.31424 12.4399 5.17921C12.5752 5.04419 12.6512 4.86102 12.6515 4.66993V3.08962C12.6545 1.38928 11.2772 0.0100019 9.5769 0.00800148Z" fill="#131316"/>
<path d="M29.2798 12.4385C29.2798 10.7822 30.4081 9.94199 31.5123 9.94199C32.9046 9.94199 33.4327 10.9502 33.4327 12.3665V19.7359H36.7933V12.4385C36.7933 10.7822 37.9216 9.94199 39.0258 9.94199C40.4181 9.94199 40.9462 10.9502 40.9462 12.3665V19.7359H44.3068V11.4063C44.3068 8.66973 42.6265 6.86937 40.034 6.86937C38.0896 6.86937 36.8894 7.80556 36.1212 8.59772C35.4251 7.5175 34.2488 6.86937 32.7125 6.86937C31.0802 6.86937 29.952 7.58952 29.2798 8.40568V7.10942H25.9192V19.7359H29.2798V12.4385Z" fill="#131316"/>
<path d="M49.4896 19.952C51.146 19.952 52.4182 19.4479 53.2344 18.5597C53.7865 19.6159 55.0827 20.048 57.2192 19.7359V17.2154C56.475 17.3115 56.187 17.0954 56.187 16.4233V11.2623C56.187 8.33367 54.2666 6.86937 51.0739 6.86937C48.0733 6.86937 46.153 8.59772 45.5768 10.7341L48.7695 11.3343C49.0575 10.206 49.7057 9.65393 50.9539 9.65393C52.3462 9.65393 52.8983 10.3261 52.8983 11.4063V11.5983L49.7537 12.1984C47.2092 12.6545 45.1928 13.7107 45.1928 16.2312C45.1928 18.4637 47.0171 19.952 49.4896 19.952ZM52.8983 15.247C52.8983 16.6633 51.578 17.4075 50.1618 17.4075C49.1536 17.4075 48.5054 16.9034 48.5054 16.0392C48.5054 15.031 49.3216 14.6709 50.4258 14.4549L52.8983 13.9508V15.247Z" fill="#131316"/>
<path d="M58.106 5.62112H61.5387V2.5005H58.106V5.62112ZM61.5147 7.10942H58.154V19.7359H61.5147V7.10942Z" fill="#131316"/>
<path d="M63.3123 19.7359H66.6729V12.4385C66.6729 10.7822 67.8252 9.94199 69.0014 9.94199C70.4417 9.94199 71.0178 10.9502 71.0178 12.3665V19.7359H74.3785V11.4063C74.3785 8.66973 72.7701 6.86937 70.1296 6.86937C68.5213 6.86937 67.3691 7.58952 66.6729 8.40568V7.10942H63.3123V19.7359Z" fill="#131316"/>
<path d="M74.8644 17.5995C76.0166 19.1598 78.4171 20 80.6975 20C83.7221 20 86.1706 18.3677 86.1706 15.7271C86.1706 12.8706 83.5541 12.3665 81.3457 11.9104C79.7854 11.5983 78.9452 11.4543 78.9452 10.6381C78.9452 9.94199 79.6413 9.4859 80.6975 9.4859C82.0178 9.4859 83.2421 10.086 84.0822 11.1662L86.0026 9.05381C85.0184 7.78156 83.026 6.86937 80.7936 6.86937C77.769 6.86937 75.6325 8.54971 75.6325 10.9742C75.6325 13.6867 77.889 14.2148 79.9294 14.6229C81.9458 15.007 82.882 15.127 82.882 16.0872C82.882 16.9994 81.8978 17.3835 80.7696 17.3835C79.3533 17.3835 77.817 16.6393 76.9528 15.4631L74.8644 17.5995Z" fill="#131316"/>
<path d="M87.4909 16.4473C87.4909 19.0398 88.8352 19.88 91.3797 19.88C92.2199 19.88 92.94 19.808 93.5401 19.6879V16.9034C93.108 16.9514 92.868 16.9754 92.3879 16.9754C91.4037 16.9754 90.8036 16.8314 90.8036 15.7511V9.91798H93.3721V7.10942H90.8036V3.5087H87.4909V7.10942H85.8106V9.91798H87.4909V16.4473Z" fill="#131316"/>
<path d="M98.0196 19.952C99.676 19.952 100.948 19.4479 101.764 18.5597C102.316 19.6159 103.613 20.048 105.749 19.7359V17.2154C105.005 17.3115 104.717 17.0954 104.717 16.4233V11.2623C104.717 8.33367 102.797 6.86937 99.604 6.86937C96.6033 6.86937 94.683 8.59772 94.1068 10.7341L97.2995 11.3343C97.5875 10.206 98.2357 9.65393 99.4839 9.65393C100.876 9.65393 101.428 10.3261 101.428 11.4063V11.5983L98.2837 12.1984C95.7392 12.6545 93.7228 13.7107 93.7228 16.2312C93.7228 18.4637 95.5471 19.952 98.0196 19.952ZM101.428 15.247C101.428 16.6633 100.108 17.4075 98.6918 17.4075C97.6836 17.4075 97.0354 16.9034 97.0354 16.0392C97.0354 15.031 97.8516 14.6709 98.9558 14.4549L101.428 13.9508V15.247Z" fill="#131316"/>
<path d="M109.253 13.4227C109.253 11.0702 110.429 9.67793 112.206 9.67793C113.598 9.67793 114.438 10.6381 114.75 11.9344L117.607 10.5901C117.007 8.54971 115.086 6.86937 112.182 6.86937C108.509 6.86937 105.916 9.53391 105.916 13.4227C105.916 17.3355 108.509 20 112.182 20C115.11 20 117.079 18.2717 117.655 16.2072L114.75 14.911C114.438 16.2072 113.598 17.1674 112.206 17.1674C110.429 17.1674 109.253 15.7992 109.253 13.4227Z" fill="#131316"/>
<path d="M121.673 2.5005H118.312V19.7359H121.673V15.8712L123.161 14.3349L126.642 19.7359H130.483L125.49 11.9104L130.123 7.10942H126.09L121.673 12.0064V2.5005Z" fill="#131316"/>
</svg>
