<svg width="40" height="40" viewBox="0 0 40 40" fill="none" xmlns="http://www.w3.org/2000/svg">
<path d="M32.3157 13.9454H27.001C26.7464 13.9454 26.5022 13.8442 26.3222 13.6642C26.1422 13.4841 26.041 13.24 26.041 12.9853V7.73466C26.041 7.48005 26.1422 7.23587 26.3222 7.05584C26.5022 6.8758 26.7464 6.77466 27.001 6.77466H29.0863C31.3997 6.77466 33.2757 8.64933 33.2757 10.9627V12.9853C33.2757 13.24 33.1745 13.4841 32.9945 13.6642C32.8145 13.8442 32.5703 13.9454 32.3157 13.9454Z" fill="#131316"/>
<path d="M6.73633 29.0573V17.3347C6.73633 17.2086 6.76116 17.0838 6.8094 16.9673C6.85765 16.8508 6.92836 16.745 7.01751 16.6558C7.10665 16.5667 7.21248 16.496 7.32895 16.4477C7.44542 16.3995 7.57026 16.3747 7.69633 16.3747H12.9817C13.2363 16.3747 13.4804 16.4758 13.6605 16.6558C13.8405 16.8359 13.9417 17.0801 13.9417 17.3347V32.2867C13.9417 32.5413 13.8405 32.7854 13.6605 32.9655C13.4804 33.1455 13.2363 33.2467 12.9817 33.2467H10.9257C8.61233 33.2467 6.73633 31.3707 6.73633 29.0573Z" fill="#131316"/>
<path d="M16.3867 29.0573V17.3347C16.3867 17.0801 16.4879 16.8359 16.6679 16.6558C16.8479 16.4758 17.0921 16.3747 17.3467 16.3747H22.6321C22.8867 16.3747 23.1308 16.4758 23.3109 16.6558C23.4909 16.8359 23.5921 17.0801 23.5921 17.3347V32.2867C23.5921 32.5413 23.4909 32.7854 23.3109 32.9655C23.1308 33.1455 22.8867 33.2467 22.6321 33.2467H20.5761C18.2627 33.2467 16.3867 31.3707 16.3867 29.0573Z" fill="#131316"/>
<path d="M26.0371 29.0573V17.3347C26.0371 17.0801 26.1382 16.8359 26.3183 16.6558C26.4983 16.4758 26.7425 16.3747 26.9971 16.3747H32.2824C32.537 16.3747 32.7811 16.4758 32.9612 16.6558C33.1412 16.8359 33.2423 17.0801 33.2423 17.3347V32.2867C33.2423 32.5413 33.1412 32.7854 32.9612 32.9655C32.7811 33.1455 32.537 33.2467 32.2824 33.2467H30.2264C27.9131 33.2467 26.0371 31.3707 26.0371 29.0573Z" fill="#131316"/>
<path d="M19.4913 6.76399L7.68728 6.75333C7.4329 6.75333 7.18892 6.85429 7.00893 7.03403C6.82893 7.21378 6.72763 7.45762 6.72728 7.71199L6.72461 9.81999C6.72328 12.0853 8.55794 13.9253 10.8246 13.9267L22.6286 13.9387C22.8833 13.9387 23.1276 13.8376 23.3079 13.6576C23.4881 13.4776 23.5896 13.2334 23.5899 12.9787V10.872C23.5939 8.60533 21.7579 6.76666 19.4913 6.76399Z" fill="#131316"/>
</svg>
